# xmcd
#
# Track frame offsets: 
#        150
#        55416
#        129143
#        143136
#        164051
#        189814
#        218893
#        237673
#        251611
#        274222
#        318927
#
# Disc length: 4421 seconds
#
# Revision: 0
# Processed by: cddbd v1.5.2PL0 Copyright (c) Steve Scherf et al.
# Submitted via: ExactAudioCopy v0.95a5
#
DISCID=a311430b
DTITLE=查阜西 - 查阜西琴学艺术 CD2
DYEAR=1900
DGENRE=Folk
TTITLE0=潇湘水云
TTITLE1=渔歌
TTITLE2=洞庭秋思
TTITLE3=醉渔唱晚
TTITLE4=凯歌
TTITLE5=空山忆故人
TTITLE6=阳关三叠
TTITLE7=大跃进的歌声震山河
TTITLE8=平沙落雁
TTITLE9=梅花三弄
TTITLE10=关山月
EXTD=
EXTT0=
EXTT1=
EXTT2=
EXTT3=
EXTT4=
EXTT5=
EXTT6=
EXTT7=
EXTT8=
EXTT9=
EXTT10=
PLAYORDER=
